<?xml version="1.0" standalone="no"?><!DOCTYPE svg PUBLIC "-//W3C//DTD SVG 1.1//EN" "http://www.w3.org/Graphics/SVG/1.1/DTD/svg11.dtd"><svg t="1597067609784" class="icon" viewBox="0 0 1310 1024" version="1.1" xmlns="http://www.w3.org/2000/svg" p-id="5033" xmlns:xlink="http://www.w3.org/1999/xlink" width="255.859375" height="200"><defs><style type="text/css"></style></defs><path d="M714.556477 833.506092V381.083062h-95.246954v452.42303l-142.87043-119.058692-71.435216 71.435216 261.929123 238.117384 238.117385-238.117384-71.435216-71.435216-119.058692 119.058692z m361.890801-502.618175C1048.611356 196.375407 966.960905 119.153939 857.426908 119.153939c-31.431495 0-68.553995 7.334015-103.176263 20.287601-75.34034-99.43782-161.919821-139.44154-242.998791-139.44154-162.515115 0-302.956748 160.657799-286.431402 325.506465 0.500047 5.024277 0.595293 9.810436 0.761976 14.787089C119.572569 363.557623-5.772423 473.020184 0.204324 595.388708c5.976746 122.368524 89.555948 260.857595 223.806529 260.857595L309.756923 857.317831v-95.246954l-85.74607-0.881034C139.693488 761.189843 98.522992 658.346944 95.451277 595.388708c-3.476514-71.197098 84.555483-147.751837 150.65687-162.276997l77.435773-16.97777-2.619291-78.983536-0.071435-1.976375c-0.190494-6.381546-0.452423-12.620221-1.119152-19.120826-5.310018-53.171612 15.430007-111.248442 55.48135-155.371593 37.884476-41.694354 87.460515-65.601339 136.01265-65.601339 101.271324 0 162.467491 95.794624 209.82904 158.324249l66.720491-24.978514c104.557344-39.098875 172.396986 11.310576 195.256255 121.677983L1000.297338 428.706539h71.435216c63.910706 0 145.061111 60.648498 142.87043 142.870431-2.500233 93.461073-89.675007 189.612873-172.063622 189.612873L1000.297338 762.070877v95.246954l42.242024-1.071528C1183.766783 856.246303 1306.18293 708.708771 1309.849938 571.57697c3.667008-137.131802-117.201377-240.689052-233.40266-240.689053z" p-id="5034"></path></svg>