<?xml version="1.0" standalone="no"?><!DOCTYPE svg PUBLIC "-//W3C//DTD SVG 1.1//EN" "http://www.w3.org/Graphics/SVG/1.1/DTD/svg11.dtd"><svg class="icon" width="200px" height="200.00px" viewBox="0 0 1024 1024" version="1.1" xmlns="http://www.w3.org/2000/svg"><path fill="#333333" d="M864 451.2c-9.6 0-16-3.2-22.4-9.6-12.8-12.8-12.8-32 0-44.8L953.6 288l-112-108.8c-12.8-12.8-12.8-32 0-44.8 12.8-12.8 32-12.8 44.8 0L1011.2 256c6.4 6.4 12.8 19.2 12.8 32s-6.4 25.6-12.8 32l-124.8 121.6c-6.4 6.4-12.8 9.6-22.4 9.6z"  /><path fill="#333333" d="M960 1024H64c-35.2 0-64-28.8-64-64V64C0 28.8 28.8 0 64 0h576c19.2 0 32 12.8 32 32s-12.8 32-32 32H64v896h896V640c0-19.2 12.8-32 32-32s32 12.8 32 32v320c0 35.2-28.8 64-64 64z"  /><path fill="#333333" d="M288 752c-19.2 0-32-12.8-32-32C256 464 464 256 720 256c19.2 0 32 12.8 32 32s-12.8 32-32 32C499.2 320 320 499.2 320 720c0 19.2-12.8 32-32 32z"  /><path fill="#333333" d="M928 320h-224c-19.2 0-32-12.8-32-32s12.8-32 32-32h224c19.2 0 32 12.8 32 32s-12.8 32-32 32z"  /></svg>