<?xml version="1.0" standalone="no"?><!DOCTYPE svg PUBLIC "-//W3C//DTD SVG 1.1//EN" "http://www.w3.org/Graphics/SVG/1.1/DTD/svg11.dtd"><svg class="icon" width="200px" height="200.00px" viewBox="0 0 1024 1024" version="1.1" xmlns="http://www.w3.org/2000/svg"><path fill="#333333" d="M117.84985 278.933441C52.871394 278.933441 0 226.071019 0 161.081348s52.871394-117.852093 117.84985-117.852093 117.843121 52.862422 117.843121 117.852093S182.830549 278.933441 117.84985 278.933441zM117.84985 103.466265c-31.772628 0-57.615083 25.851427-57.615083 57.615083s25.842455 57.615083 57.615083 57.615083c31.763657 0 57.608355-25.851427 57.608355-57.615083S149.615749 103.466265 117.84985 103.466265zM993.882617 191.200974 376.651206 191.200974c-16.635436 0-30.117383-13.490919-30.117383-30.117383s13.481947-30.117383 30.117383-30.117383l617.231411 0c16.635436 0 30.117383 13.490919 30.117383 30.117383S1010.518053 191.200974 993.882617 191.200974zM117.84985 629.84985C52.871394 629.84985 0 576.987428 0 512s52.871394-117.84985 117.84985-117.84985 117.843121 52.862422 117.843121 117.84985S182.830549 629.84985 117.84985 629.84985zM117.84985 454.384917c-31.772628 0-57.615083 25.851427-57.615083 57.615083 0 31.763657 25.842455 57.615083 57.615083 57.615083 31.763657 0 57.608355-25.851427 57.608355-57.615083C175.458204 480.236343 149.615749 454.384917 117.84985 454.384917zM993.882617 542.117383 376.651206 542.117383c-16.635436 0-30.117383-13.490919-30.117383-30.117383s13.481947-30.117383 30.117383-30.117383l617.231411 0c16.635436 0 30.117383 13.490919 30.117383 30.117383S1010.518053 542.117383 993.882617 542.117383zM117.84985 980.768502C52.871394 980.768502 0 927.906079 0 862.918652c0-64.987428 52.871394-117.84985 117.84985-117.84985s117.843121 52.862422 117.843121 117.84985C235.695214 927.906079 182.830549 980.768502 117.84985 980.768502zM117.84985 805.301326c-31.772628 0-57.615083 25.851427-57.615083 57.615083 0 31.763657 25.842455 57.615083 57.615083 57.615083 31.763657 0 57.608355-25.851427 57.608355-57.615083C175.458204 831.152752 149.615749 805.301326 117.84985 805.301326zM993.882617 893.036035 376.651206 893.036035c-16.635436 0-30.117383-13.490919-30.117383-30.117383 0-16.626464 13.481947-30.117383 30.117383-30.117383l617.231411 0c16.635436 0 30.117383 13.490919 30.117383 30.117383C1024 879.545116 1010.518053 893.036035 993.882617 893.036035z" /></svg>